<?xml version="1.0" encoding="UTF-8"?> <svg xmlns="http://www.w3.org/2000/svg" width="60" height="60"><g fill="none" fill-rule="evenodd"><path d="M48.63 38.5l-1.276-3.043a1.406 1.406 0 0 0-1.242-.761c-.518 0-.995.292-1.241.761L43.593 38.5H12.754v-25h36v25h-.124zm-22.11-9.783c2.923 0 5.293-2.433 5.293-5.434 0-3.002-2.37-5.435-5.294-5.435-2.924 0-5.294 2.433-5.294 5.435 0 3.001 2.37 5.434 5.294 5.434zm8.47 4.348c-.988-2.558-4.475-4.348-8.47-4.348-3.997 0-7.484 1.79-8.471 4.348h16.94z" fill="#CEDAFA"></path><path d="M46.373 35.166l2.435 5.657h4.74a1.166 1.166 0 0 1 .818 2.033l-4.115 3.67 2.279 5.251c.205.492.074 1.061-.326 1.413-.4.353-.98.41-1.442.143l-5.506-3.107-5.507 3.107a1.24 1.24 0 0 1-1.441-.143c-.4-.352-.532-.92-.326-1.413l2.278-5.25-4.114-3.67a1.164 1.164 0 0 1 .813-2.034h4.747l2.439-5.657a1.266 1.266 0 0 1 2.228 0zm2.381-9.395V11.22c0-2.054-1.58-3.719-3.53-3.719h-28.94c-1.949 0-3.53 1.665-3.53 3.719V36.5m15 7.988H17.116c-4.44.16-7.822-1.303-10.143-4.386h0a1 1 0 0 1 .799-1.602h19.982m-1.5-10a5.5 5.5 0 1 0 0-11 5.5 5.5 0 0 0 0 11zm8.5 4c-.99-2.353-4.49-4-8.5-4s-7.509 1.647-8.5 4M30.774 11h.96" stroke="#252628" stroke-width="2" stroke-linecap="round" stroke-linejoin="round"></path></g></svg> 