<?xml version="1.0" encoding="UTF-8"?> <svg xmlns="http://www.w3.org/2000/svg" width="60" height="60"><g fill="none" fill-rule="evenodd"><path d="M33.441 33.897a4 4 0 0 1 4 4v3a4 4 0 0 1-4 4H15.56c-2.518 0-4.559-2.462-4.559-5.5s2.041-5.5 4.559-5.5H33.44zm0 11.103a4 4 0 0 1 4 4v3a4 4 0 0 1-4 4H15.56C13.04 56 11 53.538 11 50.5s2.041-5.5 4.559-5.5H33.44z" fill="#E1EAFF"></path><path d="M48.889 52.48c0 1.83-1.492 3.313-3.333 3.313H14.444c-1.84 0-3.333-1.483-3.333-3.313v-4.416c0-1.83 1.492-3.313 3.333-3.313h31.112c1.84 0 3.333 1.483 3.333 3.313v4.416zm0-11.041c0 1.83-1.492 3.312-3.333 3.312H14.444c-1.84 0-3.333-1.483-3.333-3.312v-4.417c0-1.83 1.492-3.312 3.333-3.312h31.112c1.84 0 3.333 1.483 3.333 3.312v4.417zm-9.917-32.27A11.55 11.55 0 0 0 30 5c-5.977-.086-10.994 4.457-11.462 10.38a6.138 6.138 0 0 0-5.089 1.15 6.058 6.058 0 0 0-2.338 4.635c0 6.011 6.569 5.919 6.569 5.919h14.56m14.599-7.188l-3.224 4-2.075-1.715M44 28.897a7 7 0 1 0 0-14 7 7 0 0 0 0 14zM16.213 49.666a.5.5 0 1 0 .018.996.5.5 0 0 0-.017-.994h0m5.555-.002a.5.5 0 1 0 .017.996.5.5 0 0 0-.017-.994h0m-5.556-11.044a.5.5 0 1 0 .018.996.5.5 0 0 0-.017-.994h0m5.555-.002a.5.5 0 1 0 .017.996.5.5 0 0 0-.017-.994h0" stroke="#252628" stroke-width="2" stroke-linecap="round" stroke-linejoin="round"></path></g></svg> 