<?xml version="1.0" encoding="UTF-8"?> <svg xmlns="http://www.w3.org/2000/svg" xmlns:xlink="http://www.w3.org/1999/xlink" width="60px" height="60px" viewBox="0 0 60 60"><!-- Generator: Sketch 61.1 (89650) - https://sketch.com --><title>large / API Tech</title><desc>Created with Sketch.</desc><g id="large-/-API-Tech" stroke="none" stroke-width="1" fill="none" fill-rule="evenodd"><g transform="translate(11.000000, 5.000000)"><path d="M22.4411765,40 C24.6503155,40 26.4411765,41.790861 26.4411765,44 L26.4411765,44 L26.4411765,47 C26.4411765,49.209139 24.6503155,51 22.4411765,51 L22.4411765,51 L4.55882353,51 C2.04105482,51 3.01980663e-14,48.5375661 3.01980663e-14,45.5 C3.01980663e-14,42.4624339 2.04105482,40 4.55882353,40 L4.55882353,40 Z M22.4411765,28.8970291 C24.6503155,28.8970291 26.4411765,30.6878901 26.4411765,32.8970291 L26.4411765,32.8970291 L26.4411765,35.8970291 C26.4411765,38.1061681 24.6503155,39.8970291 22.4411765,39.8970291 L22.4411765,39.8970291 L4.55882353,39.8970291 C2.04105482,39.8970291 5.86197757e-14,37.4345953 5.86197757e-14,34.3970291 C5.86197757e-14,31.359463 2.04105482,28.8970291 4.55882353,28.8970291 L4.55882353,28.8970291 Z" id="fill" fill="#E1EAFF"></path><path d="M37.8888889,47.4803625 C37.8888889,49.3098057 36.3965047,50.7928625 34.5555556,50.7928625 L3.44444444,50.7928625 C1.60349528,50.7928625 0.111111111,49.3098057 0.111111111,47.4803625 L0.111111111,43.0636958 C0.111111111,41.2342526 1.60349528,39.7511958 3.44444444,39.7511958 L34.5555556,39.7511958 C36.3965047,39.7511958 37.8888889,41.2342526 37.8888889,43.0636958 L37.8888889,47.4803625 Z M37.8888889,36.4386958 C37.8888889,38.268139 36.3965047,39.7511958 34.5555556,39.7511958 L3.44444444,39.7511958 C1.60349528,39.7511958 0.111111111,38.268139 0.111111111,36.4386958 L0.111111111,32.0220291 C0.111111111,30.1925859 1.60349528,28.7095291 3.44444444,28.7095291 L34.5555556,28.7095291 C36.3965047,28.7095291 37.8888889,30.1925859 37.8888889,32.0220291 L37.8888889,36.4386958 Z M27.9720965,4.16859515 C25.7945051,1.54226951 22.5138741,-0.0234234875 19,0.00119580527 C13.0226498,-0.0846153252 8.00601478,4.45800216 7.53777778,10.3803625 C5.75394679,9.98823076 3.88713764,10.4100774 2.44934698,11.5302053 C1.01155632,12.6503333 0.153720126,14.3511542 0.111111111,16.1661958 C0.111111111,22.1772791 6.68,22.0846123 6.68,22.0846123 C11.9728395,22.0846123 15.9424691,22.0846123 18.5888889,22.0846123 C20.1268262,22.0846123 18.808542,22.0846123 21.2402344,22.0846123 M5.21350048,44.6657303 C4.93765694,44.6705452 4.7178432,44.8978708 4.72229125,45.1737164 C4.72674015,45.4495621 4.95376967,45.6696794 5.22962107,45.6656013 C5.50547241,45.6615195 5.72589282,45.4347843 5.72218543,45.1589276 C5.72039846,45.0261673 5.66567466,44.8996154 5.57016619,44.807384 C5.47465773,44.7151525 5.34627314,44.6648787 5.21353538,44.66773 L5.21353538,44.66773 M10.769056,44.6657303 C10.4932125,44.6705452 10.2733988,44.8978708 10.2778468,45.1737164 C10.2822957,45.4495621 10.5093252,45.6696794 10.7851766,45.6656013 C11.061028,45.6615195 11.2814484,45.4347843 11.277741,45.1589276 C11.275954,45.0261673 11.2212302,44.8996154 11.1257217,44.807384 C11.0302133,44.7151525 10.9018287,44.6648787 10.7690909,44.66773 L10.7690909,44.66773 M5.21350048,33.6240636 C4.93765694,33.6288785 4.7178432,33.8562041 4.72229125,34.1320498 C4.72674015,34.4078954 4.95376967,34.6280127 5.22962107,34.6239346 C5.50547241,34.6198529 5.72589282,34.3931176 5.72218543,34.117261 C5.72039846,33.9845006 5.66567466,33.8579488 5.57016619,33.7657173 C5.47465773,33.6734859 5.34627314,33.623212 5.21353538,33.6260633 L5.21353538,33.6260633 M10.769056,33.6240636 C10.4932125,33.6288785 10.2733988,33.8562041 10.2778468,34.1320498 C10.2822957,34.4078954 10.5093252,34.6280127 10.7851766,34.6239346 C11.061028,34.6198529 11.2814484,34.3931176 11.277741,34.117261 C11.275954,33.9845006 11.2212302,33.8579488 11.1257217,33.7657173 C11.0302133,33.6734859 10.9018287,33.623212 10.7690909,33.6260633 L10.7690909,33.6260633" id="path" stroke="#252628" stroke-width="2" stroke-linecap="round" stroke-linejoin="round"></path><path d="M33,7 C37.6944204,7 41.5,10.8055796 41.5,15.5 C41.5,20.1944204 37.6944204,24 33,24 C28.3055796,24 24.5,20.1944204 24.5,15.5 C24.5,10.8055796 28.3055796,7 33,7 Z M35.3,14 L31.7,14 C30.4849736,14 29.5,14.9849736 29.5,16.2 L29.5,16.2 L29.5,17.8 C29.5,19.0150264 30.4849736,20 31.7,20 L31.7,20 L35.3,20 C36.5150264,20 37.5,19.0150264 37.5,17.8 L37.5,17.8 L37.5,16.2 C37.5,14.9849736 36.5150264,14 35.3,14 L35.3,14 Z" id="Oval-2" fill="#CEDAFA"></path><rect id="Rectangle" stroke="#000000" stroke-width="1.25" fill="#FFFFFF" stroke-linecap="round" stroke-linejoin="round" x="29" y="14" width="8" height="6" rx="2.2"></rect><path d="M30.5,14 L30.5,12.875 C30.5,11.8394661 31.6192882,11 33,11 C34.3807118,11 35.5,11.8394661 35.5,12.875 L35.5,14" id="Path" stroke="#000000" stroke-width="1.25" stroke-linecap="round" stroke-linejoin="round"></path></g></g></svg> 