<?xml version="1.0" encoding="UTF-8"?> <svg xmlns="http://www.w3.org/2000/svg" width="60" height="60"><g fill="none" fill-rule="evenodd"><path d="M44 33.5c-8.837 0-16-7.163-16-16s7.163-16 16-16 16 7.163 16 16-7.163 16-16 16zM39.2 14a2.2 2.2 0 0 0-2.2 2.2v6.6a2.2 2.2 0 0 0 2.2 2.2h10.6a2.2 2.2 0 0 0 2.2-2.2v-6.6a2.2 2.2 0 0 0-2.2-2.2H39.2z" fill="#C6FAA0"></path><path d="M26.898 6.104H6.026c-1.176 0-2.13.943-2.13 2.105V44c0 1.163.954 2.105 2.13 2.105h44.74c1.176 0 2.13-.942 2.13-2.105v-7.762M29 30.396H13.437c-1.38 0-2.5-.989-2.5-2.209v-8.833c0-1.22 1.12-2.208 2.5-2.208h10.117M39.2 14h10.6a2.2 2.2 0 0 1 2.2 2.2v6.6a2.2 2.2 0 0 1-2.2 2.2H39.2a2.2 2.2 0 0 1-2.2-2.2v-6.6a2.2 2.2 0 0 1 2.2-2.2zm1.196-.396v-2.25c0-2.07 1.79-3.75 4-3.75 2.209 0 4 1.68 4 3.75v2.25m-29.73 9.615a.552.552 0 1 1 0 1.104.552.552 0 0 1 0-1.104m6.834 0a.552.552 0 1 1 0 1.104.552.552 0 0 1 0-1.104M21.18 55c1.825-2.35 2.867-5.127 3-8m9.633 8c-1.826-2.35-2.867-5.127-3-8m-13.25 8h19.875M3.895 40.437h49" stroke="#000" stroke-width="2" stroke-linecap="round" stroke-linejoin="round"></path></g></svg> 