<?xml version="1.0" encoding="UTF-8"?> <svg xmlns="http://www.w3.org/2000/svg" width="60" height="60"><g fill="none" fill-rule="evenodd"><path d="M14.822 42.692c.078-.048.153-.101.227-.16.596-.478.95-1.256.951-2.085V23c-1.836-.001-3.561.627-5 1.72V19.2a7.2 7.2 0 0 1 7.2-7.2h16.6a7.2 7.2 0 0 1 7.2 7.2v13.3C42 41.06 35.06 48 26.5 48a15.464 15.464 0 0 1-11.678-5.308zm21.574-8.956c.594 0 .962.026 1.329.454a1.233 1.233 0 0 1 0 1.554C35.942 37.829 33.522 39 31 39c-2.522 0-4.942-1.171-6.725-3.256a1.233 1.233 0 0 1 0-1.554c.367-.428.545-.454 1.33-.454h10.791z" fill="#FFDF87"></path><path d="M36 51h2c3.868 0 7-2.064 7-5.803V41m0-17c4.382-.003 8.128 3.224 8.87 7.64.74 4.417-1.739 8.737-5.87 10.228a2.207 2.207 0 0 1-2.049-.289A2.315 2.315 0 0 1 45 39.702V24zm-29 0c-4.382-.003-8.128 3.224-8.87 7.64-.74 4.417 1.739 8.737 5.87 10.228.689.25 1.452.141 2.049-.289.596-.43.95-1.13.951-1.877V24zm29 4v-4.421C45 14.423 38.508 7 30.5 7S16 14.423 16 23.579V28m7-2c.833-.667 1.667-1 2.5-1s1.667.333 2.5 1m6 0c.833-.667 1.667-1 2.5-1s1.667.333 2.5 1M26.182 49h8.727c.603 0 1.091.448 1.091 1v2c0 .552-.488 1-1.09 1h-8.728C24.977 53 24 52.105 24 51h0c0-1.105.977-2 2.182-2z" stroke="#252628" stroke-width="2" stroke-linecap="round" stroke-linejoin="round"></path></g></svg> 